<svg width="340" height="220" viewBox="0 0 340 220" fill="none" xmlns="http://www.w3.org/2000/svg">
  <rect x="20" y="30" width="300" height="160" rx="16" fill="#3b82f6" fill-opacity="0.09"/>
  <rect x="46" y="58" width="248" height="42" rx="8" fill="#fff" stroke="#3b82f6" stroke-width="2"/>
  <rect x="46" y="118" width="72" height="22" rx="5" fill="#3b82f6" fill-opacity="0.8"/>
  <rect x="132" y="118" width="72" height="22" rx="5" fill="#3b82f6" fill-opacity="0.3"/>
  <rect x="218" y="118" width="76" height="22" rx="5" fill="#3b82f6" fill-opacity="0.15"/>
  <circle cx="74" cy="79" r="7" fill="#3b82f6" fill-opacity="0.62"/>
  <rect x="88" y="69" width="105" height="18" rx="4" fill="#3b82f6" fill-opacity="0.17"/>
  <rect x="46" y="154" width="204" height="14" rx="3" fill="#3b82f6" fill-opacity="0.17"/>
  <rect x="258" y="154" width="36" height="14" rx="3" fill="#3b82f6" fill-opacity="0.41"/>
  <!-- UI elements: text fields, buttons as abstract visual blocks -->
  <rect x="46" y="178" width="100" height="7" rx="2.5" fill="#3b82f6" fill-opacity="0.23"/>
  <rect x="154" y="178" width="71" height="7" rx="2.5" fill="#3b82f6" fill-opacity="0.09"/>
  <rect x="232" y="178" width="46" height="7" rx="2.5" fill="#3b82f6" fill-opacity="0.23"/>
</svg>
